#!OML:ASF \\sashay\E\Suitcase\Project 1\Capture day 1\Session 1\Male1.ASF
:FULLY-SPECIFIED
:DEGREES
119
root 1.2017 17.4256 -35.0833 5.59308 3.35625 -1.95854
lowerback 0.985889 -2.58635 2.55901
upperback -1.59407 -3.35747 2.05869
thorax -2.21209 -1.70065 0.779617
lowerneck -18.1497 0.0427728 -1.53584
upperneck 16.5914 0.448954 0.123923
head 8.13035 0.125644 0.347409
rclavicle -2.69602e-014 1.59028e-015
rhumerus -44.4989 -24.8817 -62.4012
rradius 19.3717
rwrist -1.08701
rhand -16.0626 17.3355
rfingers 7.12502
rthumb 10.1398 -12.4001
lclavicle -2.69602e-014 1.59028e-015
lhumerus -40.2612 9.0273 80.7342
lradius 34.9374
lwrist -5.41291
lhand -2.00264 41.9412
lfingers 7.12502
lthumb 23.6709 70.5038
rfemur -11.9852 0.603984 25.2274
rtibia 28.277
rfoot -22.2151 -8.16085
rtoes 7.21493
lfemur -13.6807 -6.56366 -20.2245
ltibia 30.1465
lfoot -22.0084 2.62564
ltoes -0.409783
120
root 1.19969 17.4144 -35.0864 5.59405 3.2736 -2.01659
lowerback 1.05959 -2.63773 2.66447
upperback -1.62471 -3.42053 2.01837
thorax -2.29426 -1.73481 0.686847
lowerneck -18.0125 0.188029 -1.53153
upperneck 16.5033 0.626131 0.210612
head 8.07484 0.219504 0.396565
rclavicle 1.78906e-014 -5.96354e-015
rhumerus -44.5446 -24.6167 -62.6932
rradius 19.4981
rwrist -1.3203
rhand -15.6362 17.7394
rfingers 7.12502
rthumb 10.5511 -11.9758
lclavicle 1.78906e-014 -5.96354e-015
lhumerus -40.0824 9.49409 80.357
lradius 34.3027
lwrist -5.84496
lhand -2.13586 41.6897
lfingers 7.12502
lthumb 23.5431 70.2688
rfemur -12.05 0.908129 25.2958
rtibia 28.317
rfoot -22.2271 -8.29235
rtoes 8.84195
lfemur -13.7508 -6.61345 -20.1261
ltibia 30.2293
lfoot -22.137 2.31807
ltoes 2.35937
121
root 1.19824 17.4145 -35.0818 5.60942 3.23871 -1.85785
lowerback 0.98635 -2.60858 2.42804
upperback -1.53504 -3.39267 2.00799
thorax -2.14707 -1.71598 0.799445
lowerneck -18.0484 0.139599 -1.66748
upperneck 16.3078 0.579915 0.292008
head 8.01539 0.198619 0.439872
rclavicle -2.07978e-014 1.82882e-014
rhumerus -44.3899 -24.3411 -62.9477
rradius 19.5808
rwrist -1.52895
rhand -15.8891 17.6257
rfingers 7.12502
rthumb 10.3071 -12.1017
lclavicle -2.07978e-014 1.82882e-014
lhumerus -40.2217 9.07983 80.6189
lradius 34.9788
lwrist -5.38031
lhand -1.72949 42.4217
lfingers 7.12502
lthumb 23.9328 70.9502
rfemur -12.1416 0.692661 25.1194
rtibia 28.4997
rfoot -22.5043 -8.35124
rtoes 8.35748
lfemur -13.7095 -6.60357 -20.2851
ltibia 30.2084
lfoot -22.4372 2.29329
ltoes 1.86551
122
root 1.20132 17.4083 -35.0838 5.67322 3.22502 -1.8092
lowerback 0.999894 -2.60855 2.40532
upperback -1.60377 -3.39127 1.97421
thorax -2.22607 -1.71593 0.780496
lowerneck -17.6873 0.0742524 -1.64449
upperneck 15.8777 0.463425 0.353985
head 7.81028 0.153876 0.440671
rclavicle 8.44835e-016 2.38542e-015
rhumerus -44.5968 -24.7395 -62.5625
rradius 19.3827
rwrist -1.02623
rhand -15.8077 18.0016
rfingers 7.12502
rthumb 10.3857 -11.7219
lclavicle 8.44835e-016 2.38542e-015
lhumerus -40.3988 8.99807 80.5831
lradius 35.0382
lwrist -5.33052
lhand -1.73367 42.0957
lfingers 7.12502
lthumb 23.9288 70.6247
rfemur -12.26 0.524898 25.0787
rtibia 28.6145
rfoot -22.4512 -8.1232
rtoes 10.0868
lfemur -13.7374 -6.71578 -20.3057
ltibia 30.2547
lfoot -22.4258 1.87599
ltoes 4.83434
123
root 1.19571 17.3969 -35.0844 5.6549 3.28427 -1.79361
lowerback 0.989154 -2.62304 2.29733
upperback -1.52331 -3.41509 2.0026
thorax -2.12921 -1.72508 0.866836
lowerneck -17.9736 0.12955 -1.59054
upperneck 16.1733 0.567272 0.172581
head 7.95829 0.186126 0.385363
rclavicle -8.39865e-015 -1.03368e-014
rhumerus -44.484 -25.068 -62.4055
rradius 19.2633
rwrist -0.709851
rhand -15.5882 18.2624
rfingers 7.12502
rthumb 10.5974 -11.4504
lclavicle -8.39865e-015 -1.03368e-014
lhumerus -40.2752 9.01424 80.6274
lradius 35.068
lwrist -5.292
lhand -1.68794 42.2812
lfingers 7.12502
lthumb 23.9727 70.8045
rfemur -12.3959 0.791967 25.0815
rtibia 28.8247
rfoot -22.6862 -8.34899
rtoes 11.7449
lfemur -13.7853 -6.57481 -20.3081
ltibia 30.2139
lfoot -22.6035 2.30093
ltoes 2.76267
